<?xml version="1.0" encoding="UTF-8" standalone="no"?>
<svg
   xmlns:dc="http://purl.org/dc/elements/1.1/"
   xmlns:cc="http://creativecommons.org/ns#"
   xmlns:rdf="http://www.w3.org/1999/02/22-rdf-syntax-ns#"
   xmlns:svg="http://www.w3.org/2000/svg"
   xmlns="http://www.w3.org/2000/svg"
   xmlns:sodipodi="http://sodipodi.sourceforge.net/DTD/sodipodi-0.dtd"
   xmlns:inkscape="http://www.inkscape.org/namespaces/inkscape"
   viewBox="0 0 100 43.999897"
   width="100"
   height="44"
   id="svg2"
   version="1.1"
   inkscape:version="0.91 r13725"
   sodipodi:docname="Microsoft_Office_2013_logo_and_wordmark.svg">
  <title
     id="title4310">Microsoft Office logos</title>
  <metadata
     id="metadata28">
    <rdf:RDF>
      <cc:Work
         rdf:about="">
        <dc:format>image/svg+xml</dc:format>
        <dc:type
           rdf:resource="http://purl.org/dc/dcmitype/StillImage" />
        <dc:title>Microsoft Office logos</dc:title>
        <cc:license
           rdf:resource="http://scripts.sil.org/OFL" />
      </cc:Work>
      <cc:License
         rdf:about="http://scripts.sil.org/OFL">
        <cc:permits
           rdf:resource="http://scripts.sil.org/pub/OFL/Reproduction" />
        <cc:permits
           rdf:resource="http://scripts.sil.org/pub/OFL/Distribution" />
        <cc:permits
           rdf:resource="http://scripts.sil.org/pub/OFL/Embedding" />
        <cc:permits
           rdf:resource="http://scripts.sil.org/pub/OFL/DerivativeWorks" />
        <cc:requires
           rdf:resource="http://scripts.sil.org/pub/OFL/Notice" />
        <cc:requires
           rdf:resource="http://scripts.sil.org/pub/OFL/Attribution" />
        <cc:requires
           rdf:resource="http://scripts.sil.org/pub/OFL/ShareAlike" />
        <cc:requires
           rdf:resource="http://scripts.sil.org/pub/OFL/DerivativeRenaming" />
        <cc:requires
           rdf:resource="http://scripts.sil.org/pub/OFL/BundlingWhenSelling" />
      </cc:License>
    </rdf:RDF>
  </metadata>
  <defs
     id="defs26" />
  <sodipodi:namedview
     pagecolor="#ffffff"
     bordercolor="#666666"
     borderopacity="1"
     objecttolerance="10"
     gridtolerance="10"
     guidetolerance="10"
     inkscape:pageopacity="0"
     inkscape:pageshadow="2"
     inkscape:window-width="1366"
     inkscape:window-height="705"
     id="namedview24"
     showgrid="false"
     inkscape:showpageshadow="false"
     inkscape:zoom="1"
     inkscape:cx="84.207061"
     inkscape:cy="23.817222"
     inkscape:window-x="-8"
     inkscape:window-y="-8"
     inkscape:window-maximized="1"
     inkscape:current-layer="svg2" />
  <g
     transform="matrix(0.47823591,0,0,0.46153107,-101.58783,-251.74932)"
     id="g4">
    <g
       transform="matrix(1.8232952,0,0,1.8232952,-597.71681,-124.12247)"
       id="g6">
      <g
         transform="translate(0,-91.137241)"
         id="g8">
        <g
           transform="matrix(0.74069815,0,0,0.74069815,98.5698,-8.2505871)"
           id="g10"
           style="fill:#eb3c00">
          <path
             d="m 469.87,671.03 0,-28.52 25.229,-9.3238 13.711,4.3877 0,38.392 -13.711,4.133 -25.229,-9.0691 25.229,3.0361 0,-33.201 -16.454,3.8392 0,22.487 z"
             id="path12"
             inkscape:connector-curvature="0" />
          <path
             d="m 535.68,671.23 c -3.9714,0 -7.1517,-1.3086 -9.541,-3.9258 -2.3893,-2.6172 -3.584,-6.0221 -3.584,-10.215 0,-4.5052 1.2174,-8.0989 3.6523,-10.781 2.4349,-2.6823 5.7487,-4.0234 9.9414,-4.0234 3.8672,3e-5 6.9824,1.3021 9.3457,3.9062 2.3632,2.6042 3.5449,6.0091 3.5449,10.215 -3e-5,4.5703 -1.211,8.1836 -3.6328,10.84 -2.4219,2.6562 -5.6641,3.9844 -9.7266,3.9844 z m 0.23437,-25.977 c -2.9427,3e-5 -5.332,1.0612 -7.168,3.1836 -1.8359,2.1224 -2.7539,4.9089 -2.7539,8.3594 -10e-6,3.4505 0.89517,6.2272 2.6855,8.3301 1.7904,2.1029 4.1243,3.1543 7.002,3.1543 3.0729,0 5.4948,-1.0026 7.2656,-3.0078 1.7708,-2.0052 2.6562,-4.8112 2.6562,-8.418 -2e-5,-3.6979 -0.8594,-6.556 -2.5781,-8.5742 -1.7188,-2.0182 -4.0886,-3.0273 -7.1094,-3.0274 z"
             id="path14"
             inkscape:connector-curvature="0" />
          <path
             d="m 560.71,640.72 c -1.8099,3e-5 -3.3138,0.61648 -4.5248,1.8339 -1.2109,1.2175 -1.8168,2.8741 -1.8168,4.9704 l 0,3.2393 -3.4107,0 0,2.7423 3.4107,0 0,17.259 3.1879,0 0,-17.259 7.7984,0 0,17.259 3.1879,0 0,-17.259 4.679,0 0,-2.7423 -4.679,0 0,-3.0851 c -10e-6,-2.8255 1.1197,-4.2334 3.3593,-4.2334 0.79426,2e-5 1.5003,0.16265 2.1253,0.51418 l 0,-2.8794 c -0.57293,-0.23435 -1.3373,-0.35989 -2.3138,-0.35992 -1.8099,3e-5 -3.331,0.61648 -4.5419,1.8339 -1.2109,1.2175 -1.8168,2.8741 -1.8168,4.9704 l 0,3.2393 -7.7984,0 0,-3.0851 c -10e-6,-2.8255 1.1197,-4.2334 3.3593,-4.2334 0.79426,2e-5 1.5003,0.16265 2.1253,0.51418 l 0,-2.8794 c -0.57293,-0.23435 -1.3544,-0.35989 -2.331,-0.35992 z"
             id="path16"
             inkscape:connector-curvature="0" />
          <path
             d="m 577.88,645.68 c -0.57292,3e-5 -1.0612,-0.19529 -1.4648,-0.58594 -0.40365,-0.39059 -0.60547,-0.88539 -0.60547,-1.4844 0,-0.59893 0.20182,-1.097 0.60547,-1.4941 0.40364,-0.39711 0.89192,-0.59568 1.4648,-0.5957 0.58593,2e-5 1.084,0.19859 1.4941,0.5957 0.41015,0.39716 0.61523,0.89521 0.61524,1.4941 -10e-6,0.57294 -0.20509,1.0612 -0.61524,1.4648 -0.41016,0.40367 -0.90821,0.6055 -1.4941,0.60547 z m 1.5625,25.078 -3.2031,0 0,-20 3.2031,0 z"
             id="path18"
             inkscape:connector-curvature="0" />
          <path
             d="m 597.64,669.84 c -1.5365,0.92448 -3.3594,1.3867 -5.4688,1.3867 -2.8516,0 -5.153,-0.92774 -6.9043,-2.7832 -1.7513,-1.85546 -2.627,-4.2611 -2.627,-7.2168 0,-3.2943 0.94401,-5.9407 2.832,-7.9395 1.888,-1.9987 4.4075,-2.998 7.5586,-2.998 1.7578,2e-5 3.3073,0.32554 4.6484,0.97656 l 0,3.2812 c -1.4844,-1.0416 -3.0729,-1.5625 -4.7656,-1.5625 -2.0443,2e-5 -3.7207,0.73244 -5.0293,2.1973 -1.3086,1.46486 -1.9629,3.3887 -1.9629,5.7715 -10e-6,2.3438 0.61523,4.1927 1.8457,5.5469 1.23047,1.3542 2.8808,2.0313 4.9512,2.0312 1.7448,1e-5 3.3854,-0.57942 4.9219,-1.7383 z"
             id="path20"
             inkscape:connector-curvature="0" />
          <path
             d="m 617.22,661.56 -14.121,0 c 0.0521,2.2266 0.65103,3.9453 1.7969,5.1562 1.1458,1.2109 2.7214,1.8164 4.7266,1.8164 2.2526,10e-6 4.3229,-0.74218 6.2109,-2.2266 l 0,3.0078 c -1.7578,1.276 -4.082,1.9141 -6.9726,1.9141 -2.8255,0 -5.0456,-0.90821 -6.6602,-2.7246 -1.6146,-1.81639 -2.4219,-4.3717 -2.4219,-7.666 0,-3.112 0.88216,-5.6478 2.6465,-7.6074 1.76434,-1.9596 3.9551,-2.9394 6.5723,-2.9394 2.6172,2e-5 4.6419,0.84637 6.0742,2.5391 1.4323,1.69273 2.1484,4.043 2.1484,7.0508 z m -3.2812,-2.7148 c -0.013,-1.8489 -0.459,-3.2877 -1.3379,-4.3164 -0.87892,-1.0286 -2.0996,-1.543 -3.6621,-1.543 -1.5104,2e-5 -2.793,0.54038 -3.8477,1.6211 -1.0547,1.0808 -1.7057,2.4935 -1.9531,4.2383 z"
             id="path22"
             inkscape:connector-curvature="0" />
        </g>
      </g>
    </g>
  </g>
  <path
     d="m 7.4034965,34.965188 0.6197226,0 c 0,0.236857 0,0.472823 0,0.709681 1.1088679,0.0053 2.2166989,-0.0098 3.3245299,0.0053 0.236282,-0.02042 0.421785,0.136613 0.400022,0.338873 0.01762,1.747585 -0.0042,3.496058 0.01039,5.243646 -0.01039,0.179192 0.02073,0.377903 -0.100525,0.536696 -0.151303,0.09224 -0.347168,0.08072 -0.523344,0.08782 -1.037361,-0.0043 -2.073685,-0.0028 -3.1110467,-0.0028 0,0.236858 0,0.472826 0,0.709678 l -0.6477031,0 C 5.7982561,42.347419 4.2168241,42.121211 2.6364288,41.884353 c -0.00104,-2.069603 0,-4.139207 0,-6.20792 1.5886859,-0.237744 3.1784082,-0.469278 4.767094,-0.711456 z"
     id="path6"
     inkscape:connector-curvature="0"
     style="fill:#2a5699" />
  <path
     d="m 8.0232191,34.965188 9.7476709,0 c -1.589722,0.240403 -3.180481,0.47371 -4.771239,0.710568 0,2.069601 0,4.139202 0,6.208808 1.581432,0.236855 3.163899,0.463953 4.743258,0.709679 l -9.7196899,0 c 0,-0.236857 0,-0.472824 0,-0.709679 1.0373609,0 2.0736859,-0.0019 3.1110469,0.0028 0.176176,-0.0071 0.372041,0.0043 0.523344,-0.08783 0.12125,-0.158789 0.09016,-0.357498 0.100525,-0.536692 -0.01451,-1.747588 0.0072,-3.496058 -0.01039,-5.243646 0.02177,-0.202259 -0.163739,-0.359273 -0.400021,-0.338873 -1.107831,-0.01508 -2.215662,0 -3.3245302,-0.0053 0,-0.236855 0,-0.472823 0,-0.709681 z"
     id="path8"
     inkscape:connector-curvature="0"
     style="fill:#ffffff" />
  <path
     d="m 17.77089,34.965188 0.615577,0 c 0,0.236857 0,0.472823 0,0.709681 1.037362,0 2.074724,0.0019 3.112084,-0.0027 0.175139,0.0062 0.367896,-0.0045 0.520234,0.08516 0.106737,0.13129 0.0943,0.298065 0.101564,0.448872 -0.0051,1.540004 -0.0031,3.079123 -0.0021,4.618238 -0.0051,0.258149 0.02798,0.521615 -0.03524,0.776215 -0.04145,0.184515 -0.300535,0.188947 -0.473601,0.195161 -1.073633,0.0028 -2.148302,-0.0019 -3.22297,0 0,0.266132 0,0.532258 0,0.79839 l -0.643558,0 c -1.579358,-0.245727 -3.161827,-0.472826 -4.743258,-0.709679 0,-2.069607 0,-4.139209 0,-6.208808 1.590759,-0.236858 3.181516,-0.470166 4.77124,-0.710569 z"
     id="path10"
     inkscape:connector-curvature="0"
     style="fill:#207245" />
  <path
     d="m 18.386467,34.965188 9.982917,0 c -1.601121,0.233305 -3.200171,0.474597 -4.799219,0.711456 0,2.068713 -9.57e-4,4.138314 0,6.20792 1.580395,0.237744 3.162862,0.463062 4.742222,0.709679 l -9.92592,0 c 0,-0.266131 0,-0.532258 0,-0.79839 1.074669,-0.0019 2.149338,0.0028 3.22297,0 0.173067,-0.0062 0.432148,-0.01059 0.473601,-0.195163 0.06322,-0.254597 0.03006,-0.518065 0.03524,-0.776211 -9.56e-4,-1.539117 -0.0031,-3.078235 0.0021,-4.61824 -0.0072,-0.150806 0.0051,-0.31758 -0.101564,-0.448872 -0.152339,-0.08959 -0.345096,-0.07895 -0.520234,-0.08516 -1.03736,0.0045 -2.074722,0.0027 -3.112083,0.0027 0,-0.236859 0,-0.472826 0,-0.709681 z"
     id="path12-1"
     inkscape:connector-curvature="0"
     style="fill:#ffffff" />
  <path
     d="m 28.369384,34.965188 0.587597,0 c 0,0.26613 0,0.53226 0,0.798389 1.10783,0.0053 2.216699,-0.0098 3.323493,0.0045 0.238354,-0.0195 0.424893,0.139274 0.401058,0.343306 0.01762,1.657101 -0.0042,3.315091 0.01039,4.973078 -0.01039,0.179195 0.02073,0.377907 -0.09949,0.536695 -0.151303,0.09403 -0.348205,0.08161 -0.525416,0.08871 -1.036326,-0.0045 -2.072651,-0.0027 -3.110011,-0.0027 0,0.295398 0,0.591693 0,0.8871 l -0.644594,0 c -1.579359,-0.246618 -3.161828,-0.471937 -4.742223,-0.709682 -9.56e-4,-2.069603 0,-4.139205 0,-6.20792 1.599049,-0.236856 3.198099,-0.478146 4.799219,-0.711455 z"
     id="path14-9"
     inkscape:connector-curvature="0"
     style="fill:#d24625" />
  <path
     d="m 28.956981,34.965188 9.95079,0 c -1.588685,0.242177 -3.178407,0.472823 -4.768129,0.711456 0,2.068713 0,4.138314 9.56e-4,6.20792 1.581431,0.237744 3.164937,0.463953 4.744295,0.709679 l -9.927991,0 c 0,-0.295405 0,-0.591699 0,-0.8871 1.03736,0 2.073685,-0.0019 3.110011,0.0027 0.177212,-0.0071 0.374113,0.0053 0.525416,-0.08871 0.120213,-0.15879 0.08913,-0.3575 0.09949,-0.536696 -0.01451,-1.657986 0.0072,-3.315975 -0.01039,-4.973077 0.02383,-0.204035 -0.162703,-0.362824 -0.401059,-0.343307 -1.106793,-0.01419 -2.215661,8.14e-4 -3.323492,-0.0045 0,-0.26613 0,-0.532259 0,-0.798391 z"
     id="path16-5"
     inkscape:connector-curvature="0"
     style="fill:#ffffff" />
  <path
     d="m 38.907771,34.965188 0.619722,0 c 0,0.591694 0,1.182502 0,1.774196 1.073634,0.0019 2.146229,-0.0027 3.218826,0 0.211411,-0.0089 0.500545,0.04348 0.496399,0.271453 0.03938,1.122181 9.57e-4,2.247026 0.01865,3.370091 0.0042,0.198711 -0.0031,0.511858 -0.319188,0.51452 -1.136847,0.0337 -2.276804,0.0026 -3.414691,0.01331 0,0.561533 0,1.123953 0,1.685485 l -0.642521,0 c -1.579358,-0.245726 -3.162863,-0.471936 -4.744295,-0.70968 -9.56e-4,-2.069601 -9.56e-4,-4.139202 -9.56e-4,-6.207917 1.589722,-0.238632 3.179444,-0.469277 4.76813,-0.711453 z"
     id="path18-5"
     inkscape:connector-curvature="0"
     style="fill:#0071c5" />
  <path
     d="m 39.527493,34.965188 9.950791,0 c -1.587648,0.242177 -3.178407,0.47371 -4.767093,0.711456 0,2.068713 0,4.138314 0,6.20792 1.580394,0.237744 3.162863,0.463062 4.741187,0.709679 l -9.924885,0 c 0,-0.561536 0,-1.123956 0,-1.685491 1.137886,-0.01069 2.277844,0.02042 3.414691,-0.01331 0.316079,-0.0027 0.323334,-0.315808 0.319188,-0.514518 -0.01762,-1.123066 0.02073,-2.247907 -0.01865,-3.370091 0.0042,-0.227983 -0.284987,-0.28032 -0.496398,-0.271451 -1.072597,-0.0027 -2.145193,0.0019 -3.218826,0 0,-0.591694 0,-1.182504 0,-1.774199 z"
     id="path20-4"
     inkscape:connector-curvature="0"
     style="fill:#ffffff" />
  <path
     d="m 49.478284,34.965188 0.619722,0 c 0,0.258145 0,0.515402 0,0.773549 1.001092,-0.109113 2.047778,-0.101116 3.008454,0.18984 0.361675,0.105566 0.755478,0.346856 0.720242,0.715888 0.0043,1.363472 0.0043,2.727832 0,4.09219 0.03625,0.37347 -0.367893,0.612986 -0.733715,0.717663 -0.961708,0.273225 -1.996998,0.306049 -2.994981,0.184518 0,0.318466 0,0.636936 0,0.955407 l -0.645628,0 c -1.578324,-0.246617 -3.160793,-0.471935 -4.741187,-0.709679 0,-2.069606 0,-4.139207 0,-6.20792 1.588686,-0.237746 3.179445,-0.469279 4.767093,-0.711456 z"
     id="path22-4"
     inkscape:connector-curvature="0"
     style="fill:#a33639" />
  <path
     d="m 50.098006,34.965188 10.054423,0 c -1.587653,0.242177 -3.176338,0.474597 -4.765024,0.711456 0,2.0696 0,4.138314 9.56e-4,6.20792 1.578328,0.235967 3.158721,0.462178 4.734971,0.709679 l -10.025403,0 c 0,-0.318471 0,-0.636941 0,-0.955407 0.997978,0.121531 2.033269,0.08871 2.994977,-0.184518 0.365821,-0.104676 0.769989,-0.344193 0.73372,-0.717663 0.0043,-1.364358 0.0043,-2.728718 0,-4.09219 0.03524,-0.369032 -0.358568,-0.610324 -0.720248,-0.715888 -0.960671,-0.290968 -2.007362,-0.298951 -3.008449,-0.18984 0,-0.258147 0,-0.515404 0,-0.773549 z"
     id="path24"
     inkscape:connector-curvature="0"
     style="fill:#ffffff" />
  <path
     d="m 60.152429,34.965188 0.619722,0 c 0,0.236857 0,0.47371 9.56e-4,0.710568 0.970001,0.03194 1.951399,-0.06742 2.914144,0.05679 0.03419,0.09402 0.07047,0.187178 0.106737,0.280325 0.244575,0.03726 0.638378,0.01154 0.676723,0.2954 0.07876,0.518953 0.02381,1.044119 -0.01554,1.563957 0.05596,0.552664 0.0943,1.114197 -0.01865,1.663314 0.09431,0.508306 0.09534,1.029921 0.03213,1.540003 -0.04457,0.275887 -0.426964,0.256372 -0.66843,0.295404 -0.03525,0.144596 -0.03213,0.303389 -0.123323,0.432014 -0.186541,0.100247 -0.417639,0.07629 -0.625939,0.08428 -0.75963,-0.0062 -1.519255,-0.0034 -2.277842,-0.0034 -9.57e-4,0.236858 -9.57e-4,0.473712 -9.57e-4,0.71057 l -0.648741,0 c -1.576252,-0.247502 -3.156644,-0.473712 -4.734967,-0.709679 -9.55e-4,-2.069606 -9.55e-4,-4.13832 -9.55e-4,-6.207921 1.588689,-0.236856 3.177374,-0.469276 4.765023,-0.711454 z"
     id="path26"
     inkscape:connector-curvature="0"
     style="fill:#733781" />
  <path
     d="m 60.772151,34.965188 10.058568,0 c -1.589724,0.240403 -3.181517,0.47371 -4.77124,0.710568 -9.56e-4,2.069601 -9.56e-4,4.139202 0,6.208808 1.58143,0.237744 3.164937,0.463953 4.745334,0.709679 l -10.032662,0 c 0,-0.236857 0,-0.473712 9.56e-4,-0.710568 0.758591,0 1.518217,-0.0028 2.277842,0.0034 0.2083,-0.008 0.439403,0.01599 0.625939,-0.08428 0.09119,-0.128626 0.08809,-0.287419 0.123323,-0.432014 0.241466,-0.03903 0.623868,-0.0195 0.668431,-0.295404 0.06322,-0.510084 0.06218,-1.031698 -0.03213,-1.540003 0.11296,-0.549117 0.07461,-1.110651 0.01865,-1.663314 0.03941,-0.519838 0.09431,-1.045004 0.01554,-1.563957 -0.03836,-0.28387 -0.432148,-0.258144 -0.676718,-0.295401 -0.0363,-0.09315 -0.07255,-0.18629 -0.106738,-0.280324 -0.962745,-0.124194 -1.944147,-0.02485 -2.914144,-0.05679 -9.56e-4,-0.236856 -9.56e-4,-0.47371 -9.56e-4,-0.710566 z"
     id="path28"
     inkscape:connector-curvature="0"
     style="fill:#ffffff" />
  <path
     d="m 70.830719,34.965188 0.615575,0 c 0,0.53226 0,1.064517 0,1.596777 0.242504,0 0.486037,0 0.729573,0 0.02903,-0.316695 -0.137832,-0.819679 0.328515,-0.949196 0.644595,-0.06474 1.298516,-0.0062 1.947257,-0.02927 0.255971,0.01951 0.583452,-0.05323 0.776206,0.133951 0.05493,0.126855 0.04768,0.266129 0.05493,0.400083 -0.0034,1.211777 -0.0051,2.42444 9.57e-4,3.636217 -0.0043,0.161453 -9.57e-4,0.328229 -0.06425,0.482584 -0.314005,0.08782 -0.65185,0.04436 -0.975181,0.05235 -0.01554,0.404518 0.04041,0.815245 -0.03314,1.216214 -0.08809,0.20758 -0.37619,0.197823 -0.586561,0.203147 -0.726465,0.0019 -1.451891,-0.0027 -2.178355,-8.14e-4 0,0.295401 0,0.591698 0,0.887105 l -0.641487,0 c -1.580393,-0.245729 -3.163898,-0.471942 -4.745329,-0.709685 -9.57e-4,-2.069604 -9.57e-4,-4.139208 0,-6.208807 1.589718,-0.236857 3.181517,-0.470165 4.771235,-0.710569 z"
     id="path30"
     inkscape:connector-curvature="0"
     style="fill:#077467" />
  <path
     d="m 71.446294,34.965188 9.951827,0 c -1.588686,0.242177 -3.179441,0.472823 -4.769165,0.711456 0,2.068713 0,4.138314 9.56e-4,6.20792 1.580398,0.237744 3.164937,0.463062 4.744296,0.709679 l -9.92799,0 c 0,-0.295405 0,-0.591699 0,-0.8871 0.726464,-0.0019 1.451891,0.0027 2.178355,8.13e-4 0.210371,-0.0053 0.498471,0.0045 0.586561,-0.203145 0.07358,-0.40097 0.0176,-0.811696 0.03314,-1.216215 0.323331,-0.008 0.661175,0.03549 0.97518,-0.05235 0.06322,-0.154355 0.0601,-0.321129 0.06426,-0.482583 -0.0062,-1.211778 -0.0043,-2.42444 -9.55e-4,-3.636219 -0.0072,-0.133952 0,-0.273225 -0.05493,-0.400081 -0.192752,-0.18718 -0.520234,-0.114438 -0.776205,-0.133952 -0.648742,0.02305 -1.302661,-0.03549 -1.947257,0.02928 -0.466347,0.129514 -0.299495,0.632499 -0.328514,0.949196 -0.243538,0 -0.48707,0 -0.729573,0 0,-0.532261 0,-1.064519 0,-1.596781 z"
     id="path32"
     inkscape:connector-curvature="0"
     style="fill:#ffffff" />
  <path
     d="m 81.398121,34.965188 0.618689,0 c -9.57e-4,0.453306 0.0043,0.907503 -0.0043,1.36081 0.192758,-0.08871 0.390694,-0.22621 0.625939,-0.182742 0.473602,0.06209 0.680864,0.481696 0.961709,0.762905 0.620759,-0.03283 1.28401,0.0612 1.756574,0.434677 0.66843,0.459519 0.96378,1.27654 0.69019,1.975572 -0.153375,0.457743 -0.547178,0.825002 -1.009379,1.075165 0.0943,0.226211 0.188612,0.495 0.0051,0.709678 -0.211414,0.307824 -0.748229,0.401856 -1.066381,0.164115 -0.227989,-0.197824 -0.409346,-0.430243 -0.62283,-0.638715 -0.457021,0.0071 -0.914039,-0.04347 -1.337894,-0.194271 0.0019,0.720324 0,1.441538 9.57e-4,2.161861 l -0.64252,0 c -1.57936,-0.246617 -3.163899,-0.471935 -4.744296,-0.709679 -9.57e-4,-2.069606 -9.57e-4,-4.139207 -9.57e-4,-6.20792 1.589719,-0.238633 3.18048,-0.469279 4.769165,-0.711456 z"
     id="path34"
     inkscape:connector-curvature="0"
     style="fill:#0071c5" />
  <path
     d="m 82.01681,34.965188 9.841976,0 c -1.586615,0.242177 -3.174263,0.47371 -4.761911,0.711456 0,2.068713 0,4.138314 0,6.20792 1.578322,0.237744 3.159753,0.463062 4.736004,0.709679 l -9.816069,0 c -9.57e-4,-0.720323 9.56e-4,-1.441537 -9.57e-4,-2.161861 0.423856,0.150806 0.880872,0.201371 1.337894,0.194271 0.213484,0.208472 0.394841,0.440891 0.62283,0.638715 0.318151,0.237741 0.854972,0.143709 1.06638,-0.164115 0.183428,-0.214678 0.08913,-0.483467 -0.0051,-0.709678 0.4622,-0.250163 0.856004,-0.617422 1.009378,-1.075165 0.273595,-0.699032 -0.02177,-1.516053 -0.690189,-1.975572 -0.472564,-0.373467 -1.13581,-0.4675 -1.75657,-0.434677 -0.280845,-0.281209 -0.488107,-0.700808 -0.961709,-0.762905 -0.235249,-0.04348 -0.433186,0.09403 -0.62594,0.182742 0.0083,-0.453307 0.0028,-0.907504 0.0043,-1.36081 z"
     id="path36"
     inkscape:connector-curvature="0"
     style="fill:#ffffff" />
  <path
     d="m 91.858786,34.965188 0.624905,0 c 0,0.652903 0,1.304924 0,1.957827 0.759625,-0.01241 1.519251,-0.0036 2.279913,-0.0062 -9.56e-4,-0.109116 -9.56e-4,-0.218229 0,-0.327344 -0.193791,-0.0612 -0.501583,-0.0337 -0.56998,-0.243063 -0.149229,-0.328229 0.260117,-0.542907 0.472564,-0.758472 0.243536,-0.196049 0.503659,-0.549114 0.896424,-0.413388 0.277736,0.136612 0.470488,0.366371 0.700553,0.553552 0.157522,0.153466 0.405206,0.317579 0.3337,0.550888 -0.02903,0.253712 -0.371007,0.254597 -0.589671,0.311372 9.57e-4,0.966051 -0.0028,1.932991 0.0028,2.899041 -0.0072,0.180081 0.0083,0.375242 -0.106737,0.535807 -0.187574,0.09315 -0.411421,0.08339 -0.617651,0.08782 -0.623868,-0.0027 -1.246699,-0.0036 -1.86953,-0.0027 -9.56e-4,0.109113 -9.56e-4,0.218226 0,0.326453 0.215556,0.05679 0.559618,0.05323 0.58967,0.305162 0.07772,0.212904 -0.135756,0.374355 -0.28499,0.514515 -0.225919,0.190729 -0.42904,0.40452 -0.683974,0.567747 -0.166846,0.101116 -0.373075,0.02129 -0.554432,0.0062 9.57e-4,0.254598 9.57e-4,0.50919 9.57e-4,0.763792 l -0.650813,0 c -1.576252,-0.246614 -3.157682,-0.471937 -4.736003,-0.70968 0,-2.069606 0,-4.139209 0,-6.207922 1.587647,-0.237743 3.175294,-0.469276 4.761909,-0.711454 z"
     id="path38"
     inkscape:connector-curvature="0"
     style="fill:#733781" />
  <path
     d="m 95.24757,35.465509 c 0.119176,-0.130401 0.290169,-0.008 0.378256,0.08339 0.240428,0.239516 0.561687,0.432018 0.715068,0.728308 -0.215556,0.01331 -0.431111,0.0186 -0.644596,0.02217 -0.0019,1.180729 0.0043,2.360573 -0.0043,3.541301 -0.758587,0.0071 -1.517179,0.0019 -2.275766,0.0036 -9.56e-4,-0.177418 -9.56e-4,-0.354837 0,-0.532259 0.552362,0 1.10472,0 1.65812,0 0,-1.004195 0,-2.008394 0,-3.012589 -0.216593,-0.0036 -0.432148,-0.0089 -0.645633,-0.02042 0.181357,-0.328224 0.537853,-0.549999 0.818697,-0.813468 z"
     id="path42"
     inkscape:connector-curvature="0"
     style="fill:#ffffff" />
  <path
     d="m 72.677451,35.878899 c 0.761696,-0.05766 1.52858,-0.01241 2.292352,-0.0266 0,1.359922 0,2.720732 0,4.080658 -0.242504,0 -0.483966,0 -0.725432,0 -0.0019,-1.066296 0.0034,-2.1317 -0.0019,-3.197996 -0.487069,-0.33 -1.14099,-0.467501 -1.56485,-0.856051 z"
     id="path44"
     inkscape:connector-curvature="0"
     style="fill:#ffffff" />
  <path
     d="m 8.0232191,35.940996 c 1.1399569,0 2.2799149,0 3.4198719,0 0,1.892184 0,3.785253 0,5.677439 -1.139957,0 -2.279915,0 -3.4198719,0 0,-0.236858 0,-0.472828 0,-0.709683 0.8984929,0 1.7959512,0 2.6944449,0 0,-0.117982 0,-0.236856 0,-0.354841 -0.8984937,0 -1.795952,0 -2.6944449,0 0,-0.148144 0,-0.295402 0,-0.443548 0.8984929,0 1.7959512,0 2.6944449,0 0,-0.117983 0,-0.236854 0,-0.354839 -0.8984937,0 -1.795952,0 -2.6944449,0 0,-0.148144 0,-0.295404 0,-0.44355 0.8984929,0 1.7959512,0 2.6944449,0 0,-0.117983 0,-0.236854 0,-0.354842 -0.8984937,0 -1.795952,0 -2.6944449,0 0,-0.148144 0,-0.2954 0,-0.443548 0.8984929,0 1.7959512,0 2.6944449,0 0,-0.117985 0,-0.236854 0,-0.354839 -0.8984937,0 -1.795952,0 -2.6944449,0 0,-0.148146 0,-0.295403 0,-0.443551 0.8984929,0 1.7959512,0 2.6944449,0 0,-0.117984 0,-0.236853 0,-0.354837 -0.8984937,0 -1.795952,0 -2.6944449,0 0,-0.148146 0,-0.295405 0,-0.443549 0.8984929,0 1.7959512,0 2.6944449,0 0,-0.117986 0,-0.236856 0,-0.354843 -0.8984937,0 -1.795952,0 -2.6944449,0 0,-0.206693 0,-0.414275 0,-0.620969 z"
     id="path46"
     inkscape:connector-curvature="0"
     style="fill:#ffffff" />
  <path
     d="m 18.386467,35.940996 c 1.139958,0 2.279914,0 3.419872,0 0,1.86291 0,3.725818 0,5.588726 -1.139958,0 -2.279914,0 -3.419872,0 0,-0.17742 0,-0.35484 0,-0.532259 0.2767,0 0.552362,0 0.82906,0 0,-0.206693 0,-0.414275 0,-0.620968 -0.276698,0 -0.55236,0 -0.82906,0 0,-0.117986 0,-0.236858 0,-0.35484 0.2767,0 0.552362,0 0.82906,0 0,-0.206697 0,-0.414275 0,-0.620972 -0.276698,0 -0.55236,0 -0.82906,0 0,-0.117983 0,-0.236854 0,-0.354836 0.2767,0 0.552362,0 0.82906,0 0,-0.206696 0,-0.414276 0,-0.620972 -0.276698,0 -0.55236,0 -0.82906,0 0,-0.117983 0,-0.236853 0,-0.354841 0.2767,0 0.552362,0 0.82906,0 0,-0.206692 0,-0.414274 0,-0.620968 -0.276698,0 -0.55236,0 -0.82906,0 0,-0.117982 0,-0.236855 0,-0.35484 0.2767,0 0.552362,0 0.82906,0 0,-0.206695 0,-0.414274 0,-0.620967 -0.276698,0 -0.55236,0 -0.82906,0 0,-0.177422 0,-0.354842 0,-0.532263 z"
     id="path48"
     inkscape:connector-curvature="0"
     style="fill:#ffffff" />
  <path
     d="m 50.098006,36.008417 c 0.925439,-0.109114 1.889218,-0.105566 2.788752,0.129513 0.247683,0.07895 0.579306,0.173874 0.635269,0.426699 -0.04146,0.206694 -0.293283,0.299839 -0.492257,0.374354 -0.939945,0.271453 -1.956583,0.297181 -2.931764,0.17121 0,-0.367258 0,-0.734518 0,-1.101776 z"
     id="path50"
     inkscape:connector-curvature="0"
     style="fill:#ffffff" />
  <path
     d="m 60.772151,35.940108 c 0.898495,0 1.796985,-8.12e-4 2.69548,0 -9.56e-4,0.117987 -9.56e-4,0.235084 0,0.353067 0.238354,8.14e-4 0.47671,0.0045 0.716102,0.01331 0.01348,0.466614 0.01865,0.933226 -0.0043,1.399844 -0.23732,0.0071 -0.475672,0.0106 -0.711954,0.01154 0,1.300488 9.56e-4,2.600975 0,3.901462 -0.898495,8.14e-4 -1.796986,0 -2.695482,0 0,-0.236854 0,-0.474598 0,-0.711454 0.655993,-8.13e-4 1.311988,0 1.969017,0 -9.55e-4,-0.117981 -9.55e-4,-0.23508 0,-0.353063 -0.657029,0 -1.313024,8.15e-4 -1.969017,0 0,-0.148145 0,-0.297181 0,-0.445325 0.655993,-8.13e-4 1.311988,0 1.969017,0 -9.55e-4,-0.117982 -9.55e-4,-0.23508 0,-0.353065 -0.657029,0 -1.313024,8.14e-4 -1.969017,0 0,-0.148144 0,-0.297177 0,-0.445324 0.655993,-8.14e-4 1.311988,0 1.969017,0 -9.55e-4,-0.117984 -9.55e-4,-0.235081 0,-0.353066 -0.657029,0 -1.313024,8.13e-4 -1.969017,0 0,-0.148146 0,-0.297177 0,-0.445323 0.655993,-8.15e-4 1.311988,0 1.96798,0 0,-0.117985 0,-0.235081 9.57e-4,-0.353065 -0.657034,0 -1.313026,8.12e-4 -1.969022,0 0,-0.148147 0,-0.297179 0,-0.445326 0.655996,-8.15e-4 1.311988,0 1.969022,0 -9.57e-4,-0.117982 -9.57e-4,-0.235079 0,-0.353063 -0.657034,0 -1.313026,8.14e-4 -1.969022,0 0,-0.148146 0,-0.297179 0,-0.445323 0.655996,-8.15e-4 1.311988,0 1.969022,0 -9.57e-4,-0.117987 -9.57e-4,-0.235084 0,-0.353067 -0.657034,0 -1.313026,8.14e-4 -1.969022,0 0,-0.207581 0,-0.415163 0,-0.622746 z"
     id="path52"
     inkscape:connector-curvature="0"
     style="fill:#ffffff" />
  <path
     d="m 28.956981,36.029705 c 1.139956,0 2.279914,0 3.419871,0 0,1.803475 0,3.607833 0,5.411308 -1.139957,0 -2.279915,0 -3.419871,0 0,-0.236854 0,-0.472823 0,-0.709681 0.82906,0 1.658118,0 2.487179,0 0,-0.117984 0,-0.236855 0,-0.354837 -0.829061,0 -1.658119,0 -2.487179,0 0,-0.148148 0,-0.295406 0,-0.443549 0.82906,0 1.658118,0 2.487179,0 0,-0.117988 0,-0.236858 0,-0.354842 -0.829061,0 -1.658119,0 -2.486145,0 -9.55e-4,-0.173871 -9.55e-4,-0.347744 -0.0021,-0.521614 0.410386,0.109114 0.877768,0.106457 1.244628,-0.104676 0.396912,-0.201372 0.604176,-0.585487 0.638376,-0.968714 -0.454947,-0.0027 -0.909893,-0.0019 -1.363804,-0.0019 -9.56e-4,-0.385888 0.0051,-0.771775 -0.0093,-1.156775 -0.169957,0.02839 -0.339915,0.05855 -0.508835,0.08959 0,-0.294517 0,-0.589923 0,-0.884441 z"
     id="path54"
     inkscape:connector-curvature="0"
     style="fill:#ffffff" />
  <path
     d="m 82.143241,36.660435 c 0.0798,-0.263467 0.541999,-0.3575 0.733719,-0.130402 0.429035,0.447097 0.833207,0.911936 1.258096,1.362583 -0.463235,0.01418 -0.931656,-0.03371 -1.390749,0.0275 -0.362714,0.06831 -0.608321,0.335324 -0.727497,0.620969 0.0051,-0.387662 -0.0093,-0.775325 0.01039,-1.1621 0.130577,-0.04791 0.262192,-0.09402 0.395873,-0.141046 -0.128501,-0.173873 -0.35649,-0.351293 -0.279806,-0.577505 z"
     id="path56"
     inkscape:connector-curvature="0"
     style="fill:#ffffff" />
  <path
     d="m 19.630056,36.473259 c 0.483964,0 0.966892,0 1.450856,0 0,0.206693 0,0.414272 0,0.620967 -0.483964,0 -0.966892,0 -1.450856,0 0,-0.206695 0,-0.414274 0,-0.620967 z"
     id="path58"
     inkscape:connector-curvature="0"
     style="fill:#207245" />
  <path
     d="m 29.683444,36.639147 c 0.720246,0.02838 1.325461,0.547338 1.363803,1.162098 -0.454946,0.0045 -0.909894,0.0027 -1.364838,0.0027 0,-0.388551 -9.57e-4,-0.777099 9.55e-4,-1.164761 z"
     id="path60"
     inkscape:connector-curvature="0"
     style="fill:#d24625" />
  <path
     d="m 71.446294,36.828096 c 0.794862,0 1.588691,0 2.383548,0 0,1.537344 0,3.075574 0,4.612917 -0.794857,0 -1.588686,0 -2.383548,0 -9.56e-4,-0.177419 -9.56e-4,-0.354841 0,-0.532261 0.587599,0 1.174156,0 1.761754,0 -9.56e-4,-0.117982 -9.56e-4,-0.236856 0,-0.354841 -0.587598,0 -1.174155,0 -1.761754,0 -9.56e-4,-0.148144 -9.56e-4,-0.295402 0,-0.443548 0.587599,0 1.174156,0 1.761754,0 -9.56e-4,-0.117983 -9.56e-4,-0.236854 0,-0.354839 -0.587598,0 -1.174155,0 -1.761754,0 -9.56e-4,-0.148144 -9.56e-4,-0.295404 0,-0.44355 0.587599,0 1.174156,0 1.761754,0 -9.56e-4,-0.117983 -9.56e-4,-0.236854 0,-0.354842 -0.587598,0 -1.174155,0 -1.761754,0 -9.56e-4,-0.148144 -9.56e-4,-0.2954 0,-0.443548 0.587599,0 1.174156,0 1.761754,0 0,-0.414275 0,-0.827663 0,-1.241939 -0.587598,0 -1.174155,0 -1.761754,0 -9.56e-4,-0.148145 -9.56e-4,-0.295403 0,-0.443549 z"
     id="path62"
     inkscape:connector-curvature="0"
     style="fill:#ffffff" />
  <path
     d="m 39.527493,37.005516 c 1.148249,8.17e-4 2.295461,-0.0027 3.443709,0.0019 -0.01969,0.11621 -0.06114,0.230646 -0.175138,0.303389 -0.686048,0.547339 -1.367951,1.097341 -2.051924,1.646454 -0.411422,-0.318468 -0.811443,-0.64758 -1.216647,-0.971372 0,-0.32734 0,-0.653794 0,-0.980244 z"
     id="path64"
     inkscape:connector-curvature="0"
     style="fill:#ffffff" />
  <path
     d="m 52.220402,37.388744 c 0.45598,-0.05766 0.931658,-0.141937 1.300587,-0.395645 -0.02282,0.381451 0.03525,0.767337 -0.03108,1.145243 -0.185503,0.18895 -0.479818,0.256371 -0.74512,0.321131 -0.86533,0.174756 -1.767966,0.179192 -2.646772,0.0825 0,-0.383227 0,-0.766455 0,-1.149678 0.703661,0.07628 1.418729,0.0754 2.12239,-0.0036 z"
     id="path66"
     inkscape:connector-curvature="0"
     style="fill:#ffffff" />
  <path
     d="m 83.783743,37.156323 c 0.553396,-0.0019 1.129593,0.137502 1.519251,0.488791 0.563763,0.463066 0.703667,1.241052 0.349241,1.832747 -0.218664,0.38234 -0.630081,0.657341 -1.085031,0.811696 0.118143,0.164115 0.312971,0.32113 0.28292,0.531376 -0.04352,0.208465 -0.312972,0.342417 -0.547184,0.290078 -0.169956,-0.06741 -0.277731,-0.204033 -0.393803,-0.322903 -0.347167,-0.389437 -0.705737,-0.770891 -1.059121,-1.156778 0.476711,-0.02128 0.966888,0.04969 1.437381,-0.04258 0.609359,-0.147256 0.894349,-0.823226 0.554434,-1.277424 -0.31919,-0.40629 -0.71921,-0.761129 -1.058088,-1.154999 z"
     id="path68"
     inkscape:connector-curvature="0"
     style="fill:#ffffff" />
  <path
     d="m 92.489909,37.187372 c 0.757554,-0.0089 1.515103,-0.0027 2.273695,-0.0045 -9.56e-4,0.17742 -9.56e-4,0.354837 0,0.532258 -0.553395,0 -1.105757,0 -1.65812,0 0,1.005085 0,2.009281 0,3.014364 0.209338,0.0019 0.420747,0.0045 0.632156,0.01241 -0.14612,0.340648 -0.531631,0.551777 -0.80315,0.818792 -0.159591,0.156129 -0.333694,-0.04615 -0.452874,-0.133064 0.0083,-1.413149 -0.0072,-2.827183 0.0083,-4.240333 z"
     id="path70"
     inkscape:connector-curvature="0"
     style="fill:#ffffff" />
  <path
     d="m 16.069245,37.304467 c 0.234209,-0.01421 0.469455,-0.02661 0.704701,-0.03637 -0.276699,0.485242 -0.554434,0.970484 -0.836314,1.453954 0.284989,0.496776 0.576197,0.990003 0.862222,1.48678 -0.249754,-0.0124 -0.498473,-0.02572 -0.748226,-0.04081 -0.176176,-0.369921 -0.390695,-0.727422 -0.517127,-1.114198 -0.14094,0.360163 -0.341987,0.699922 -0.503653,1.052989 -0.226956,-0.0027 -0.453911,-0.01069 -0.680866,-0.01862 0.266336,-0.446206 0.523345,-0.895966 0.797971,-1.339518 -0.233174,-0.456854 -0.489146,-0.90484 -0.729573,-1.359034 0.227991,-0.01155 0.455982,-0.02304 0.683974,-0.03371 0.154412,0.346856 0.323333,0.689278 0.450802,1.045005 0.136795,-0.377017 0.340949,-0.731859 0.516089,-1.096456 z"
     id="path72"
     inkscape:connector-curvature="0"
     style="fill:#ffffff" />
  <path
     d="m 25.23243,37.308904 c 0.562723,0.02304 1.244626,-0.190728 1.710972,0.170324 0.446654,0.463953 0.328514,1.317341 -0.333698,1.595004 -0.235244,0.102897 -0.50469,0.08871 -0.760662,0.08161 -9.57e-4,0.346857 -0.0021,0.693714 -9.57e-4,1.04057 -0.205192,-0.01508 -0.411421,-0.03016 -0.616613,-0.04436 -0.0093,-0.94742 -0.0114,-1.895729 9.56e-4,-2.84315 z"
     id="path74"
     inkscape:connector-curvature="0"
     style="fill:#ffffff" />
  <path
     d="m 36.361521,37.330196 c 0.584488,-0.188953 1.267426,0.07628 1.515107,0.55976 0.337843,0.665324 0.290172,1.575486 -0.381368,2.07847 -0.618684,0.453311 -1.656046,0.195166 -1.937927,-0.448868 -0.371004,-0.742506 -0.190683,-1.885087 0.804188,-2.189362 z"
     id="path76"
     inkscape:connector-curvature="0"
     style="fill:#ffffff" />
  <path
     d="m 46.82633,37.297372 c 0.241464,-0.01508 0.481892,-0.02928 0.724391,-0.04526 0.347168,0.993553 0.676719,1.992427 1.019743,2.986864 -0.239391,-0.01331 -0.478781,-0.02838 -0.716101,-0.04701 -0.06322,-0.221775 -0.130576,-0.443549 -0.198974,-0.664439 -0.318152,-8.13e-4 -0.636302,-0.0098 -0.953419,-0.02304 -0.06114,0.21024 -0.123322,0.419596 -0.186537,0.628951 -0.20312,-0.01331 -0.405203,-0.02571 -0.607287,-0.03726 0.302606,-0.934116 0.617651,-1.864683 0.918184,-2.798797 z"
     id="path78"
     inkscape:connector-curvature="0"
     style="fill:#ffffff" />
  <path
     d="m 58.58965,37.292049 c 0.206229,-0.0098 0.413496,-0.0195 0.621796,-0.0275 0,0.97936 0,1.959603 0,2.938961 -0.223847,-0.008 -0.445619,-0.01861 -0.667392,-0.02927 -0.412459,-0.678633 -0.859118,-1.342184 -1.2581,-2.027024 0.02282,0.656454 0.0093,1.313794 0.01139,1.970249 -0.18861,-0.01069 -0.375147,-0.02042 -0.562725,-0.03016 0.0034,-0.901295 0.0019,-1.803474 0,-2.704766 0.213484,-0.0098 0.425931,-0.0195 0.640449,-0.02928 0.405204,0.635165 0.816625,1.267665 1.210428,1.909038 0.0083,-0.656453 0,-1.313793 0.0043,-1.970247 z"
     id="path80"
     inkscape:connector-curvature="0"
     style="fill:#ffffff" />
  <path
     d="m 67.715529,37.31334 c 0.564796,0.01508 1.250839,-0.195164 1.719262,0.167663 0.444583,0.465724 0.325406,1.315566 -0.336807,1.593229 -0.235244,0.102897 -0.504691,0.08959 -0.759625,0.08073 -9.57e-4,0.347746 -0.0019,0.695489 -9.57e-4,1.044118 -0.209333,-0.01775 -0.418671,-0.03548 -0.626972,-0.05502 0.01039,-0.943876 9.57e-4,-1.886862 0.0051,-2.830734 z"
     id="path82"
     inkscape:connector-curvature="0"
     style="fill:#ffffff" />
  <path
     d="m 89.369533,37.299147 c 0.206231,-0.0089 0.41246,-0.0186 0.619722,-0.02838 0.01349,1.005973 0.0043,2.01283 0.0072,3.018801 -0.210371,-0.02128 -0.41971,-0.04171 -0.62801,-0.06209 9.57e-4,-0.975811 -0.0019,-1.952506 9.57e-4,-2.928314 z"
     id="path84"
     inkscape:connector-curvature="0"
     style="fill:#ffffff" />
  <path
     d="m 78.596936,37.381646 c 0.208305,-0.0089 0.417638,-0.01775 0.628014,-0.02571 0,0.781535 -9.57e-4,1.563069 0,2.344604 0.343024,0.01331 0.687086,0.0204 1.031143,0.03547 -9.56e-4,0.183629 -9.56e-4,0.36726 0,0.551777 -0.5534,-0.03461 -1.106795,-0.05679 -1.659157,-0.09049 -9.58e-4,-0.938548 -9.58e-4,-1.8771 0,-2.815652 z"
     id="path86"
     inkscape:connector-curvature="0"
     style="fill:#ffffff" />
  <path
     d="m 4.7774495,37.508502 c 0.1969016,-0.0098 0.3938034,-0.01684 0.5907051,-0.02572 0.137831,0.59879 0.2787714,1.196695 0.4280021,1.792828 0.1171046,-0.615647 0.2466453,-1.22952 0.3720408,-1.844282 0.207265,-0.0062 0.41453,-0.01598 0.6207583,-0.0266 -0.2342094,0.8596 -0.4394017,1.726294 -0.6953737,2.580569 -0.1730664,0.07717 -0.4321479,-0.0036 -0.6373397,0.0089 -0.1378315,-0.587245 -0.2984618,-1.170955 -0.4217844,-1.760876 -0.1212499,0.573064 -0.2787714,1.140808 -0.4176389,1.710325 -0.1989743,-0.0089 -0.398985,-0.0195 -0.5989958,-0.03104 -0.1720298,-0.78065 -0.3741132,-1.555973 -0.5347436,-2.338395 0.1772116,-0.0071 0.3554595,-0.01331 0.532671,-0.01862 0.1067416,0.565082 0.2279915,1.127502 0.3212606,1.693471 0.1461219,-0.580171 0.2953527,-1.160334 0.4404382,-1.740498 z"
     id="path88"
     inkscape:connector-curvature="0"
     style="fill:#ffffff" />
  <path
     d="m 19.630056,37.449066 c 0.483964,0 0.966892,0 1.450856,0 0,0.206694 0,0.414276 0,0.620968 -0.483964,0 -0.966892,0 -1.450856,0 0,-0.206692 0,-0.414274 0,-0.620968 z"
     id="path90"
     inkscape:connector-curvature="0"
     style="fill:#207245" />
  <path
     d="m 41.069545,39.036085 c 0.622833,-0.506533 1.250844,-1.009519 1.876785,-1.51339 0.0031,1.039681 0,2.080248 9.56e-4,3.119928 -1.139958,0 -2.279916,0 -3.419874,0 0,-0.77355 -9.57e-4,-1.5471 9.56e-4,-2.319763 0.38655,0.292743 0.732683,0.626292 1.143068,0.893307 0.16892,0.0266 0.282915,-0.09848 0.397947,-0.180082 z"
     id="path92"
     inkscape:connector-curvature="0"
     style="fill:#ffffff" />
  <path
     d="m 25.848007,37.788826 c 0.204154,-0.008 0.457017,-0.03992 0.594849,0.124193 0.118142,0.17387 0.111924,0.402742 0.01346,0.581935 -0.11814,0.182745 -0.385513,0.165003 -0.59174,0.186292 -0.02176,-0.297177 -0.01969,-0.594357 -0.01658,-0.89242 z"
     id="path94"
     inkscape:connector-curvature="0"
     style="fill:#d24625" />
  <path
     d="m 36.462044,37.863342 c 0.275663,-0.112662 0.620759,0.0019 0.7503,0.235081 0.207265,0.351289 0.206229,0.779758 0.07047,1.150567 -0.09638,0.26347 -0.433184,0.480808 -0.759628,0.377019 -0.407275,-0.110004 -0.530597,-0.523391 -0.534742,-0.847181 -0.0051,-0.335322 0.08498,-0.753148 0.473599,-0.915486 z"
     id="path96"
     inkscape:connector-curvature="0"
     style="fill:#0071c5" />
  <path
     d="m 46.831511,39.025442 c 0.10467,-0.415162 0.260118,-0.820568 0.329552,-1.241939 0.09327,0.420486 0.237317,0.830324 0.35546,1.245488 -0.229028,-8.14e-4 -0.45702,-0.0019 -0.685012,-0.0036 z"
     id="path98"
     inkscape:connector-curvature="0"
     style="fill:#a33639" />
  <path
     d="m 68.337321,37.789713 c 0.205192,-0.0098 0.462201,-0.04169 0.598995,0.127741 0.113997,0.173872 0.105709,0.400083 0.0093,0.578388 -0.120214,0.181857 -0.385511,0.164115 -0.592778,0.184516 -0.0207,-0.296289 -0.0176,-0.593469 -0.01554,-0.890645 z"
     id="path100"
     inkscape:connector-curvature="0"
     style="fill:#077467" />
  <path
     d="m 63.776457,37.97689 c 0.134719,0.0044 0.269443,0.0098 0.4052,0.01508 0.0176,0.466615 0.0207,0.93234 -0.0034,1.398068 -0.134723,0.0053 -0.268409,0.01069 -0.402096,0.01508 -9.55e-4,-0.476375 -9.55e-4,-0.952747 0,-1.428233 z"
     id="path102"
     inkscape:connector-curvature="0"
     style="fill:#ffffff" />
  <path
     d="m 93.41638,37.981324 c 0.44873,0 0.897458,0 1.347224,0 0,0.354842 0,0.709681 0,1.064523 -0.449766,0 -0.898494,0 -1.347224,0 -9.57e-4,-0.354842 -9.57e-4,-0.709681 0,-1.064523 z"
     id="path104"
     inkscape:connector-curvature="0"
     style="fill:#ffff00" />
  <path
     d="m 82.76918,38.19068 c 0.43111,-0.07275 0.883986,-0.03636 1.323389,-0.02572 0.554433,0.06386 0.772059,0.704358 0.376185,1.031699 -0.402091,0.270563 -0.952383,0.16145 -1.423909,0.171207 -0.373077,0.0053 -0.754446,-0.251047 -0.734758,-0.587258 -0.03108,-0.264357 0.182395,-0.495002 0.459093,-0.589922 z"
     id="path106"
     inkscape:connector-curvature="0"
     style="fill:#ffffff" />
  <path
     d="m 19.630056,38.424875 c 0.483964,0 0.966892,0 1.450856,0 0,0.206696 0,0.414276 0,0.620972 -0.483964,0 -0.966892,0 -1.450856,0 0,-0.206696 0,-0.414276 0,-0.620972 z"
     id="path108"
     inkscape:connector-curvature="0"
     style="fill:#207245" />
  <path
     d="m 52.22662,38.807214 c 0.454946,-0.05766 0.92751,-0.141936 1.294369,-0.394757 -0.0207,0.380564 0.03213,0.764679 -0.02903,1.142582 -0.181356,0.189841 -0.475672,0.257257 -0.739936,0.322017 -0.867405,0.176534 -1.77315,0.180969 -2.654028,0.08516 0,-0.384114 0,-0.767341 0,-1.150567 0.705739,0.07717 1.422872,0.0754 2.12861,-0.0045 z"
     id="path110"
     inkscape:connector-curvature="0"
     style="fill:#ffffff" />
  <path
     d="m 82.010592,38.958908 c 0.252863,0.538471 0.793825,0.919922 1.176227,1.388313 -0.409347,0.01154 -0.816621,-0.05855 -1.17208,-0.235971 0.0019,-0.384112 0.0072,-0.768229 -0.0043,-1.152342 z"
     id="path112"
     inkscape:connector-curvature="0"
     style="fill:#ffffff" />
  <path
     d="m 19.630056,39.400683 c 0.483964,0 0.966892,0 1.450856,0 0,0.206697 0,0.414275 0,0.620972 -0.483964,0 -0.966892,0 -1.450856,0 0,-0.206697 0,-0.414275 0,-0.620972 z"
     id="path114"
     inkscape:connector-curvature="0"
     style="fill:#207245" />
  <path
     d="m 63.776457,39.661492 c 0.134719,0.0053 0.270481,0.01154 0.407276,0.01775 0.01554,0.463955 0.01449,0.927908 0,1.391859 -0.136795,0.0071 -0.272557,0.01419 -0.407276,0.02128 -9.56e-4,-0.477259 -9.56e-4,-0.953633 0,-1.430894 z"
     id="path116"
     inkscape:connector-curvature="0"
     style="fill:#ffffff" />
  <path
     d="m 52.222474,40.226573 c 0.455983,-0.05679 0.929586,-0.141933 1.298515,-0.394759 -0.02175,0.380564 0.03419,0.766454 -0.03108,1.144357 -0.293282,0.273231 -0.758592,0.323792 -1.161721,0.393876 -0.738898,0.09669 -1.494382,0.09848 -2.234318,0.0071 0.0072,-0.382376 0.0043,-0.763831 0.0043,-1.14617 0.704699,0.07717 1.419767,0.0754 2.124467,-0.0045 z"
     id="path118"
     inkscape:connector-curvature="0"
     style="fill:#ffffff" />
  <path
     d="m 19.630056,40.376495 c 0.483964,0 0.966892,0 1.450856,0 0,0.206693 0,0.414275 0,0.620968 -0.483964,0 -0.966892,0 -1.450856,0 0,-0.206693 0,-0.414275 0,-0.620968 z"
     id="path120"
     inkscape:connector-curvature="0"
     style="fill:#207245" />
</svg>
